<mxfile host="drawio-plugin" modified="2024-10-24T10:17:45.367Z" agent="5.0 (Macintosh; Intel Mac OS X 10_15_7) AppleWebKit/537.36 (KHTML, like Gecko) Chrome/122.0.0.0 Safari/537.36" version="20.5.3" etag="qKRHj4kcwcLJzNX6OPJk" type="embed"><diagram id="drBn82qmnpO4ZIBHjZxQ" name="Page-1"><mxGraphModel dx="1998" dy="693" grid="1" gridSize="10" guides="1" tooltips="1" connect="1" arrows="1" fold="1" page="1" pageScale="1" pageWidth="850" pageHeight="1100" math="0" shadow="0"><root><mxCell id="0"/><mxCell id="1" parent="0"/><mxCell id="2" value="Rancher" style="rounded=0;whiteSpace=wrap;html=1;" vertex="1" parent="1"><mxGeometry x="20" y="90" width="120" height="60" as="geometry"/></mxCell><mxCell id="3" value="K8S" style="rounded=0;whiteSpace=wrap;html=1;" vertex="1" parent="1"><mxGeometry x="250" y="90" width="120" height="60" as="geometry"/></mxCell><mxCell id="7" style="edgeStyle=orthogonalEdgeStyle;rounded=0;orthogonalLoop=1;jettySize=auto;html=1;" edge="1" parent="1" source="4" target="2"><mxGeometry relative="1" as="geometry"/></mxCell><mxCell id="9" value="获取项目信息" style="edgeLabel;html=1;align=center;verticalAlign=middle;resizable=0;points=[];" vertex="1" connectable="0" parent="7"><mxGeometry x="0.22" y="2" relative="1" as="geometry"><mxPoint as="offset"/></mxGeometry></mxCell><mxCell id="8" style="edgeStyle=orthogonalEdgeStyle;rounded=0;orthogonalLoop=1;jettySize=auto;html=1;entryX=0.5;entryY=1;entryDx=0;entryDy=0;" edge="1" parent="1" source="4" target="3"><mxGeometry relative="1" as="geometry"/></mxCell><mxCell id="10" value="获取工作负载" style="edgeLabel;html=1;align=center;verticalAlign=middle;resizable=0;points=[];" vertex="1" connectable="0" parent="8"><mxGeometry x="0.56" y="-2" relative="1" as="geometry"><mxPoint as="offset"/></mxGeometry></mxCell><mxCell id="19" style="edgeStyle=orthogonalEdgeStyle;rounded=0;orthogonalLoop=1;jettySize=auto;html=1;entryX=0;entryY=0;entryDx=0;entryDy=52.5;entryPerimeter=0;exitX=0.5;exitY=1;exitDx=0;exitDy=0;" edge="1" parent="1" source="4" target="18"><mxGeometry relative="1" as="geometry"><mxPoint x="80" y="320" as="sourcePoint"/></mxGeometry></mxCell><mxCell id="20" value="执行一次汇总" style="edgeLabel;html=1;align=center;verticalAlign=middle;resizable=0;points=[];" vertex="1" connectable="0" parent="19"><mxGeometry x="-0.4264" y="2" relative="1" as="geometry"><mxPoint x="-2" y="-71" as="offset"/></mxGeometry></mxCell><mxCell id="4" value="Summary" style="rounded=0;whiteSpace=wrap;html=1;" vertex="1" parent="1"><mxGeometry x="20" y="250" width="120" height="60" as="geometry"/></mxCell><mxCell id="11" value="" style="rounded=0;whiteSpace=wrap;html=1;" vertex="1" parent="1"><mxGeometry x="160" y="540" width="530" height="310" as="geometry"/></mxCell><mxCell id="12" value="crc-itcp-test03" style="rounded=0;whiteSpace=wrap;html=1;" vertex="1" parent="1"><mxGeometry x="170" y="550" width="120" height="40" as="geometry"/></mxCell><mxCell id="14" value="" style="ellipse;whiteSpace=wrap;html=1;aspect=fixed;" vertex="1" parent="1"><mxGeometry x="350" y="620" width="130" height="130" as="geometry"/></mxCell><mxCell id="15" value="" style="endArrow=classic;html=1;rounded=0;" edge="1" parent="1"><mxGeometry width="50" height="50" relative="1" as="geometry"><mxPoint x="480" y="660" as="sourcePoint"/><mxPoint x="530" y="610" as="targetPoint"/></mxGeometry></mxCell><mxCell id="16" value="" style="shape=process;whiteSpace=wrap;html=1;backgroundOutline=1;" vertex="1" parent="1"><mxGeometry x="530" y="580" width="100" height="40" as="geometry"/></mxCell><mxCell id="18" value="" style="shape=cylinder3;whiteSpace=wrap;html=1;boundedLbl=1;backgroundOutline=1;size=15;" vertex="1" parent="1"><mxGeometry x="270" y="420" width="60" height="80" as="geometry"/></mxCell><mxCell id="21" value="" style="shape=note;whiteSpace=wrap;html=1;backgroundOutline=1;darkOpacity=0.05;" vertex="1" parent="1"><mxGeometry x="-50" y="330" width="80" height="100" as="geometry"/></mxCell><mxCell id="22" value="" style="shape=note;whiteSpace=wrap;html=1;backgroundOutline=1;darkOpacity=0.05;" vertex="1" parent="1"><mxGeometry x="-40" y="340" width="80" height="100" as="geometry"/></mxCell><mxCell id="23" value="" style="shape=note;whiteSpace=wrap;html=1;backgroundOutline=1;darkOpacity=0.05;" vertex="1" parent="1"><mxGeometry x="-30" y="350" width="80" height="100" as="geometry"/></mxCell><mxCell id="24" value="" style="shape=note;whiteSpace=wrap;html=1;backgroundOutline=1;darkOpacity=0.05;" vertex="1" parent="1"><mxGeometry x="-20" y="360" width="80" height="100" as="geometry"/></mxCell><mxCell id="25" value="第N次汇总" style="shape=note;whiteSpace=wrap;html=1;backgroundOutline=1;darkOpacity=0.05;" vertex="1" parent="1"><mxGeometry x="-10" y="370" width="80" height="100" as="geometry"/></mxCell><mxCell id="26" value="插入数据前清空当天的记录" style="text;html=1;strokeColor=none;fillColor=none;align=center;verticalAlign=middle;whiteSpace=wrap;rounded=0;" vertex="1" parent="1"><mxGeometry x="-140" y="260" width="150" height="30" as="geometry"/></mxCell><mxCell id="30" style="edgeStyle=orthogonalEdgeStyle;rounded=0;orthogonalLoop=1;jettySize=auto;html=1;entryX=1;entryY=0;entryDx=0;entryDy=52.5;entryPerimeter=0;exitX=0.5;exitY=1;exitDx=0;exitDy=0;" edge="1" parent="1" source="29" target="18"><mxGeometry relative="1" as="geometry"/></mxCell><mxCell id="29" value="Views" style="rounded=0;whiteSpace=wrap;html=1;" vertex="1" parent="1"><mxGeometry x="410" y="250" width="120" height="60" as="geometry"/></mxCell><mxCell id="32" value="获取当月均摊" style="edgeStyle=orthogonalEdgeStyle;rounded=0;orthogonalLoop=1;jettySize=auto;html=1;entryX=1;entryY=0.5;entryDx=0;entryDy=0;" edge="1" parent="1" source="31" target="29"><mxGeometry relative="1" as="geometry"/></mxCell><mxCell id="36" style="edgeStyle=orthogonalEdgeStyle;rounded=0;orthogonalLoop=1;jettySize=auto;html=1;entryX=0.5;entryY=0;entryDx=0;entryDy=0;" edge="1" parent="1" source="31" target="12"><mxGeometry relative="1" as="geometry"><Array as="points"><mxPoint x="725" y="520"/><mxPoint x="230" y="520"/></Array></mxGeometry></mxCell><mxCell id="31" value="Actor" style="shape=umlActor;verticalLabelPosition=bottom;verticalAlign=top;html=1;outlineConnect=0;" vertex="1" parent="1"><mxGeometry x="710" y="245" width="30" height="60" as="geometry"/></mxCell></root></mxGraphModel></diagram></mxfile>